<?xml version="1.0" encoding="UTF-8"?>
<svg id="Calque_1" data-name="Calque 1" xmlns="http://www.w3.org/2000/svg" viewBox="0 0 1921.06 1241.58">
  <defs>
    <style>
      .cls-1 {
        fill: #ff9292;
      }

      .cls-1, .cls-2 {
        stroke-width: 0px;
      }

      .cls-2 {
        fill: #ffd7d7;
      }
    </style>
  </defs>
  <rect class="cls-2" x=".03" y="105.81" width="1920" height="1080"/>
  <g>
    <path class="cls-1" d="M1921.06,1177.38c-87.74-3.6-157.39-60.32-237.57-88.79-35.45-12.59-72.23-18.73-109.3-9.9-37.58,8.95-71.56,29.13-104.23,49.05-54.17,33.02-110.74,74.87-176.79,75.7-60.53.76-120.82-15.46-179.46-28.51-56.34-12.53-116.1-27.09-174.21-21.26-60.25,6.05-116.18,33.85-171.76,55.84-56.92,22.53-119.24,43.74-180.19,24.66-64.25-20.11-116.49-66.29-176.14-95.95-134.24-66.75-273.94,35.72-411.42,39.16v-19.71c75.6-1.57,146.3-28.88,218.68-47.7,68.43-17.79,130.19-23.49,195.49,7.78,59.92,28.69,113.19,72.59,177.2,92.47,60.76,18.87,122.49-1.84,179.67-23.47,55.44-20.98,110.93-46.87,170.48-53.41,57.89-6.35,117.39,8.25,173.46,21.05,58.17,13.28,117.83,29.43,177.96,28.67,66.46-.84,124.42-43.34,179.34-76.03,33.33-19.84,67.97-40.22,106.07-49.29,36.87-8.78,73.86-2.96,109.05,9.89,79.33,28.97,146.08,87.11,233.65,90.05v19.71Z"/>
    <path class="cls-1" d="M1921.06,1135.18c-85.98-2.85-147-63.11-223.53-93.3-79.96-31.54-148.36-.44-218.59,39.6-57.1,32.56-118.18,76.12-186.41,76.98-58.9.74-117.04-15.47-173.83-29.12-55.21-13.27-113.1-27.33-170.26-21.43-58.08,5.99-112.65,28.8-167.42,47.54-57.28,19.6-117.96,37.89-178.1,20.65-63.98-18.34-118.92-58.63-179.48-85.02-66.93-29.16-128.89-23.57-198.16-5.5-74.42,19.42-147.53,47.99-225.28,49.6v-19.71c80.41-1.87,156.38-31.75,233.36-51.92,70.13-18.38,133.2-24.39,201.96,2.12,61.33,23.65,118.01,60.11,182.14,76.33,59.27,15,119.01-.14,176.14-17.28,53.82-16.15,107.37-35.61,163.75-40.5,56.2-4.87,111.94,8.36,166.01,22.15,55.07,14.04,111.36,30.38,168.72,29.68,70.59-.87,135.33-45.54,195.17-78.15,70.49-38.4,143.29-74.18,222.64-39.7,72.96,31.7,127.27,94.1,211.18,97.28v19.71Z"/>
    <path class="cls-1" d="M1921.06,1092.99c-81.35-3.8-126.72-68.78-194.9-102.52-77.98-38.59-157.57,3.47-227.9,39.78-63.48,32.78-132.93,78.83-206.77,79.69-55.31.65-109.17-15.88-161.95-30.42-52.51-14.46-105.42-26.52-160.26-23.2-54.21,3.28-106.44,18.54-158.94,31.28-56.68,13.74-115.5,24.93-173.52,12.87-64.44-13.39-123.24-45.01-185.57-65.08-71.01-22.87-135.97-16.16-207.23,2.6-80.39,21.16-160.08,52.64-244.02,54.99v-19.71c87.15-2.83,170.19-35.7,253.67-57.77,72.32-19.11,139.08-26.35,212.03-6.91,63.25,16.85,123.85,44.09,188.67,54.94,56.87,9.53,115.01,1.62,171.15-8.88,51.26-9.59,102.28-21.09,154.59-22.95,53.55-1.9,103.98,9.06,155.03,24.17,50.7,15,102.34,31.68,155.82,31.08,76.83-.85,150.48-48.11,217.26-81.09,69.67-34.41,156.49-82.36,232.64-39.84,63.84,35.65,100.84,102.85,180.2,107.25v19.71Z"/>
    <path class="cls-1" d="M1921.06,1050.79c-77.78-4.97-105.4-74.49-164.69-112.24-73.54-46.82-169.25,7.59-237.67,39.93-70.23,33.19-148.3,81.74-228.3,82.57-51.62.54-100.85-16.24-149.38-31.79-49.48-15.85-97.43-25.68-149.59-25.14-50.38.52-100.11,7.97-150,14.14-55.55,6.87-112.9,11.75-168.67,4.67-65.3-8.29-127.73-30.71-191.96-44.17-74.89-15.69-143.43-8.18-216.97,11.33-86.73,23.01-173.3,57.4-263.82,60.69v-19.71c92.89-3.51,182.01-39.09,271.01-62.76,74.51-19.82,143.96-27.11,220.2-14.17,64.96,11.03,128.67,29.69,194.36,36.32,55.15,5.57,111.77,2.42,166.94-1.65,48.87-3.61,97.66-8.01,146.71-7.84,51.22.17,97.53,9.23,145.91,25.71,47.01,16.01,94.48,32.78,144.85,32.28,82.2-.82,163.4-50.3,236.06-83.6,67.16-30.79,170.11-89.96,241.33-40.06,56.17,39.36,76.39,110.59,153.69,115.78v19.71Z"/>
    <path class="cls-1" d="M1921.06,1008.6c-78.06-4.91-91.57-77.54-145.89-118.29-69.31-52-178.12,10.75-244.12,40.3-74.31,33.27-157.77,83.47-241.43,84.32-49.58.5-95.72-16.14-141.71-32.62-47.67-17.09-92.95-25.68-143.67-25.83-48.13-.15-96.21,1.71-144.31,3.24-54.99,1.75-110.9,4.22-165.77-.57-66-5.76-130.69-21.04-196.2-30.29-77.24-10.9-146.51-4.56-221.89,15.53-90.53,24.12-181.57,60.83-276.08,64.22v-19.71c94.54-3.37,185.64-40.12,276.2-64.26,39.76-10.6,80.73-21.02,122.06-22.48,33.29-1.18,66.91,2.57,99.84,7.09,65.52,8.99,130.31,23.5,196.26,29.29,54.91,4.83,110.7,2.18,165.74.89,48.08-1.13,96.15-2.46,144.25-2.57,50.72-.12,96.02,8.65,143.69,25.68,46.02,16.45,92.2,33.08,141.8,32.61,83.6-.8,166.6-50.85,240.72-84.31,66.04-29.81,174.15-92.12,243.59-40.31,54.27,40.5,69.38,113.44,146.91,118.35v19.71Z"/>
    <path class="cls-1" d="M1921.06,966.4c-76.92-5.31-104.4-77.34-162.12-115.92-72.43-48.41-169.94,7.52-237.56,39.95-70.62,33.87-148.73,82.71-229.45,83.44-50.61.46-98.51-16.3-145.86-32.11-48.63-16.24-95.15-25.46-146.55-25.36-48.89.1-97.73,2.18-146.58,3.93-55.35,1.98-111.64,4.87-166.87-.23-65.45-6.05-129.52-21.7-194.46-31.25-76.65-11.28-145.44-5.2-220.32,14.71-89.09,23.7-178.31,59.33-271.29,62.84v-19.71c90.65-3.31,177.35-37.76,264.2-60.8,73.76-19.57,141.74-25.46,217.14-13.3,64.18,10.35,127.31,27.27,192.09,33.84,55.76,5.66,112.72,2.16,168.58-.65,49.93-2.52,99.82-5.52,149.83-5.82,52.71-.32,101.12,9.29,151.33,24.73,49.33,15.18,99.54,31.89,151.79,31.38,76.19-.75,147.46-48.09,212.77-82.17,68.85-35.93,153.74-83.16,229.38-39.64,63.84,36.73,104.55,107.23,183.94,112.43v19.71Z"/>
    <path class="cls-1" d="M1921.06,924.21c-85.05-4.74-141.87-72.87-214.94-107.47-78.23-37.04-149.26-1.64-217.97,39.27-57.62,34.3-119.06,79.53-188.86,80.34-54.71.63-108.07-15.91-160.25-30.33-52.55-14.53-103.71-24.5-158.43-23.76-51.57.7-102.96,4.93-154.39,8.49-56.6,3.92-114.51,8.42-171.05,1.89-63.85-7.38-125.7-25.95-188.81-37.41-73.54-13.36-140.12-7.98-212.25,11.09-83.62,22.11-166.81,55.04-254.11,57.9v-19.71c84.1-2.38,163.95-33.92,244.48-55.12,70.56-18.58,135.74-23.38,207.45-8.92,62.12,12.52,122.73,32.62,185.72,40.79,57.29,7.43,116.11,1.84,173.41-3.06,52.85-4.53,105.66-9.9,158.73-11.02,56.7-1.2,110.5,9.06,165.29,22.82,54.91,13.79,111.2,30.09,168.33,29.33,63.98-.85,115.82-43.94,166-78.59,30.03-20.74,61.54-41.73,97.32-50.93,37.43-9.62,74.56-2.11,109.84,11.97,82.15,32.81,152.8,98.54,244.5,102.74v19.71Z"/>
    <path class="cls-1" d="M1921.06,882.01c-99.95-3.63-184.91-66.51-277.35-97.48-36.04-12.07-76.33-21.6-113.93-11.1-31.11,8.69-56.96,29.13-81.18,49.69-41.69,35.4-82.51,75.78-140.6,76.65-59.88.9-119.37-15.11-177.31-28.22-57.24-12.95-113.95-23.49-172.88-21.77-54.75,1.59-109.13,8.24-163.56,13.84-58.08,5.97-117.9,12.75-176.03,4.37-62.05-8.95-121.27-30.86-182.27-44.55-69.65-15.64-133.34-11.5-202.16,6.53-77.11,20.21-153.23,50.15-233.77,52.04v-19.71c77.86-1.61,151.09-30.24,225.62-49.69,67.5-17.62,130.23-21.32,198.31-4.8,60.15,14.6,118.25,37.87,179.6,47.47,58.73,9.19,119.4,1.39,178.02-5.38,55.64-6.43,111.23-14.08,167.27-16,60.59-2.07,119.47,8.66,178.53,21.01,60.25,12.59,122.16,28.37,184.15,27.38,54.31-.87,86.42-38.72,121.32-75.18,19.63-20.51,41.04-40.43,68.84-48.75,37.64-11.25,80.57-.28,116.99,10.47,100.35,29.63,195.81,90.14,302.42,93.47v19.71Z"/>
    <path class="cls-1" d="M1921.06,839.82c-112.18-3.51-216.32-61.58-323.2-90.15-36.7-9.81-81.66-21.9-119.34-10.04-25.39,7.99-42.99,27.29-58.55,47.96-28.76,38.18-53.46,73.13-105.59,73.97-63.7,1.04-127.62-14.57-189.76-26.68-60.46-11.79-121.05-22.71-182.89-20.46-57.14,2.08-113.74,10.67-170.39,17.82-59.01,7.45-120.43,16.01-179.62,6.24-60.78-10.04-117.86-34.64-177.28-50-66.82-17.27-129.11-13.69-195.56,3.59-72.44,18.84-143.21,46.19-218.88,47.75v-19.71c74.84-1.85,144.52-28.38,216.2-46.98,66.1-17.15,128.8-21.11,195.21-3.48,59.08,15.69,115.61,41.13,176.17,51.21,59.34,9.87,121.08,1.14,180.19-6.63,57.07-7.51,114.11-16.65,171.73-18.6,62.13-2.1,123.25,8.95,184.07,20.38,62.85,11.82,127.6,27.41,191.93,26.42,52.33-.8,73.87-33.38,99.67-73.52,13.6-21.16,29.58-39.85,54.31-47.64,37.92-11.94,82.99.5,119.99,10.03,109.38,28.17,217.42,84.38,331.58,88.8v19.71Z"/>
    <path class="cls-1" d="M1921.06,797.62c-111.38-6.36-215.75-57.46-322.87-84.45-37.19-9.37-81.3-21.73-119.22-9.56-24.68,7.92-42.76,25.39-59.04,44.87-29.45,35.24-56.39,68.61-106.2,69.61-63.98,1.28-129.82-13.67-192.75-23.48-60.9-9.49-123.09-20.65-184.94-18.49-56.76,1.98-112.92,10.82-169.15,18.17-58.17,7.61-120.41,17-178.79,7.09-62.63-10.63-120.33-39.52-181.1-56.86-65.52-18.69-129.67-14.74-194.8,3.74-70.46,20-137.86,48.53-212.19,49.36v-19.71c72.84-.79,136.32-31.97,204.2-54.16,64.89-21.21,128.69-24.05,194.03-3.21,63.58,20.28,123.46,53.41,189.36,66.21,57.2,11.11,119.43,1.33,176.6-6.06,54.64-7.06,109.18-15.46,164.33-17.34,62.04-2.11,124.9,7.01,186.45,13.71,64,6.96,130.22,18.58,194.73,17.28,49.55-1,84.25-31.45,120.35-61.45,20.52-17.05,42.26-32.38,68.3-39.53,38.17-10.47,79.79-.31,117.28,8.65,101.69,24.31,200.06,69.82,305.42,75.88v19.71Z"/>
    <path class="cls-1" d="M1921.06,755.43c-95.77-4.33-185.11-42.41-277.97-62.4-37.42-8.06-76.04-14.57-114.07-7.24-29.26,5.63-56.35,17.81-82.79,31.17-45.6,23.05-90.62,47.53-143.03,48.43-65.8,1.13-132.27-4.57-198-7.37-62.65-2.67-126.02-7.78-188.74-5.8-52.64,1.66-104.68,9.44-156.86,16.05-56.13,7.12-117.57,16.74-173.37,3.72-70.71-16.5-133.99-55.48-201.77-80.28-65.58-23.99-127.9-23.98-192.87,2-63.72,25.48-121.04,60.27-191.59,61.72v-19.71c68.5-2.36,119.39-40.59,178.8-69.4,64.81-31.42,125.9-27.48,191.7-.64,71.96,29.35,138.7,73.82,214.14,94.3,54.64,14.83,114.82,5.77,170.18-1.1,49.68-6.16,99.21-13.34,149.33-14.76,63.61-1.81,127.37-1.08,191.01-2.34,67.12-1.33,134.24-1.77,201.36-2.71,57.6-.81,111.59-18.55,166.16-35.18,70.08-21.36,135.49-30.43,208.21-16.91,83.81,15.58,164.18,46.43,250.17,48.74v19.71Z"/>
    <path class="cls-1" d="M1921.06,713.23c-74.45-.19-144.54-22.37-217.64-32.77-73.95-10.51-148.08-2.17-221.46,8.7-132.39,19.62-265.32,22.26-398.54,34.19-111.53,9.99-223.03,11.76-334.21,25.15-54.67,6.58-113.01,14.68-166.47-2.02-80.91-25.28-151.73-75.96-228.57-110.65-33.37-15.07-70.8-30.23-108.13-28.53-29.55,1.34-57.09,12.53-82.21,27.55-54.43,32.54-97.08,74.89-163.83,78.38v-19.71c65.76-4.3,101.63-49.84,151.71-85.65,22.96-16.42,49.04-28.77,77.63-30.3,38.39-2.05,77.9,16.24,111.6,32.53,80.81,39.06,154.99,94.81,240.36,124.02,52.53,17.97,109.28,10.75,163.42,4.42,109.81-12.85,219.63-15.75,329.23-31.6,68.8-9.95,138.78-23.22,208.47-24.07,71.89-.88,143.29-3.12,215.12-7.12,76.81-4.29,155.48-9.45,232.25-2.04,64.26,6.2,126.3,20.87,191.28,19.82v19.71Z"/>
    <path class="cls-1" d="M1921.06,671.04c-56.17,1.43-111.16-5.55-167.12-7.95-80.54-3.46-161.63-3.03-242.25-4.08-78.18-1.02-156.81-5.28-234.95-4.28-70.81.91-142.13,19.22-211.29,32.74-65.62,12.83-130.89,25.14-197.88,26.42-42.55.81-84.55,6.1-126.77,10.88-53.48,6.06-108.95,12.6-160.51-6.25-89.61-32.76-166.92-93.47-251.47-136.61-63.83-32.57-128.5-53.83-188.19-3.18-45.94,38.99-75.06,87.61-140.62,92.3v-19.71c66.35-4.28,90.96-54.79,134.64-95.89,57.4-54.01,125.15-29.38,187.59,3.36,86.73,45.48,165.81,109.49,258.01,144.02,50.75,19,105.94,12.42,158.74,6.61,41.01-4.51,81.76-9.45,123.08-10.25,67.88-1.3,133.02-14.85,199.07-29.79,69.43-15.71,141.06-36.37,212.7-37.32,81.59-1.08,163.89,6.36,245.35,10.33,133.69,6.5,268,10.96,401.89,8.94v19.71Z"/>
    <path class="cls-1" d="M1921.06,628.84c-133.26,2.29-266.95-3.51-400.04-8.88-82.3-3.32-165.51-10.57-247.89-9.58-71.29.86-143.03,21.49-212.21,36.78-65.7,14.51-131.06,28.68-198.56,29.25-41.95.36-83.06,6.31-124.57,11.58-52.52,6.67-108.88,13.1-159.45-5.74-92.12-34.32-169.76-100.79-255.81-147.03-61.93-33.28-131.01-57.1-187.89-3-43.53,41.41-67.89,92.88-134.64,96.62v-19.71c66.83-3.83,95.2-55.8,140.62-96.22,58.43-52,125.15-32.22,187.36,3.5,81.6,46.85,153.54,115.34,242,149.57,51.92,20.09,110.46,12.3,164.01,2.92,44.54-7.8,88.63-17.02,134.05-17.36,65.9-.49,130.97-12.58,195.76-23.81,68.35-11.86,139.14-28.86,208.78-29.58,83.2-.86,166.52,1.32,249.82.02,83.26-1.3,167.55-3.18,250.71,1.57,49.86,2.85,97.64,10.81,147.95,9.39v19.71Z"/>
    <path class="cls-1" d="M1921.06,586.65c-29.69.55-58.52-.86-87.22-8.82-18.79-5.22-36.92-11.65-56.3-14.58-82.3-12.46-170.57.45-252.53,8.93-151.82,15.7-303.7,20.06-455.66,33.98-63.65,5.83-127.17,11.41-191.04,13.31-51.52,1.53-101.16,16-151,27.69-55.29,12.97-117.68,25.92-171.92,2.82-82.05-34.95-144.57-105.82-218.56-153.89-61.68-40.08-124.68-53.37-185.12-4.91-49.1,39.37-83.49,91.65-151.71,95.48v-19.71c70.07-3.76,110.99-55.97,163.83-94.67,24.23-17.75,51.77-31.42,82.21-33.02,37.47-1.97,71.09,17.93,100.04,39.64,65.9,49.43,118.34,122.37,193.66,158.48,55.98,26.83,123.95,6.63,180.39-9.27,55.54-15.65,111.26-35.41,169.32-38.86,61.74-3.67,124.23-1.76,186.05-1.67,65.03.09,130.02-.23,195.04-.99,86.83-1.01,172.43-21.56,257.35-37.84,79.23-15.19,173.85-41.5,254.49-20.48,19.24,5.01,35.72,14.87,53.6,23.11,27.26,12.56,55.25,15.49,85.08,15.58v19.71Z"/>
    <path class="cls-1" d="M1921.06,544.45c-30.48-1.04-57.33-6.2-82.41-24.04-16.68-11.87-31.03-25.7-50.31-33.51-30.81-12.48-65.21-10.59-97.35-5.54-54.14,8.51-107.1,24.85-159.55,40.33-83.84,24.73-173.75,61.35-262.22,62.37-62.11.72-124.67-9.76-186.12-17.55-58.7-7.44-120.68-18.35-179.95-12.75-66.06,6.24-129.29,32.22-191.85,52.6-56.54,18.42-134.13,49.13-190.77,17.31-67.32-37.83-107.17-112.99-163.19-164.09-25.23-23.01-55.01-43.09-90.56-41.43-31.99,1.49-61.56,15.38-87.98,32.64-57.82,37.77-105.76,89.99-178.8,93.67v-19.71c75.76-3.62,129.57-55.81,191.59-92.82,28.23-16.85,59.54-30.92,92.87-32.31,34.11-1.43,60.64,18.79,82.53,42.94,47.41,52.31,76.23,129.89,137.09,168.9,56.26,36.06,143.8-4.34,199.66-24.16,68.61-24.34,138.24-55.59,211.13-64.36,57.88-6.96,119,11.29,174.72,25.07,57.53,14.22,118.68,33.98,178.51,33.39,36.17-.36,73.27-13.22,107.26-24.43,53.72-17.71,106.28-38.8,159.13-58.89,53.02-20.15,106.66-41.54,162.22-53.68,32.48-7.1,66.44-9.53,96.74,6.68,19.38,10.37,31.92,27.56,47.49,42.44,22.98,21.96,48.69,29.36,80.13,31.24v19.71Z"/>
    <path class="cls-1" d="M1921.06,502.26c-32.57-2.57-57.4-12.38-77.94-38.15-14.26-17.88-25.23-38.36-44.64-51.44-29.44-19.84-63.47-16.81-96.15-7.9-57.09,15.56-111.37,42.09-164.86,66.88-53.74,24.91-107.05,50.96-161.98,73.17-33.35,13.49-71.89,30.46-108.5,30.73-58.28.44-117.76-28.49-171.04-48.94-52.79-20.26-111.83-45.17-169.46-37.11-79.66,11.14-155.7,47.79-230.28,76.03-40.27,15.25-81.11,30.41-123.31,39.4-29.98,6.39-59.2,10.73-85.23-8.6-54.77-40.68-71.91-120.21-110.88-173.72-18.51-25.41-42.01-45.61-75.06-44.34-34.63,1.33-67.59,15.58-97.53,32-66.08,36.24-125.69,88.37-204.2,91.98v-19.71c80.14-3.69,143.63-55.81,212.19-91.45,30.95-16.09,64.82-30.46,100.18-31.82,32.74-1.26,54.74,18.57,71.11,45.06,33.46,54.14,42.16,135.37,93.45,176.94,25.07,20.31,55.36,15.04,84.73,8.46,44.44-9.96,87.36-26.66,129.66-43.27,78.29-30.74,158.64-71.35,242.64-83.57,58.33-8.49,114.91,19.72,165.94,44.58,50.73,24.71,108.12,59.05,166.37,58.68,37.14-.24,76.02-19.05,109.15-33.98,55.81-25.15,109.63-54.61,163.92-82.84,53.62-27.88,108.35-58.01,166.55-75.33,32.49-9.67,67.31-12.99,95.79,8.84,19.49,14.93,29.26,37.72,42.71,57.53,19.06,28.06,42.98,39.55,76.67,42.19v19.71Z"/>
    <path class="cls-1" d="M1921.06,460.06c-34.6-1.82-57.99-14-76.22-43.49-12.97-20.98-21.94-45.35-41.63-61.3-27.35-22.16-63.94-18.91-95.67-9.65-59,17.21-114,50-167.35,79.65-54.55,30.32-108.53,62.11-164.97,88.87-33.6,15.93-71.35,33.8-109.31,34.08-59.71.43-114.03-35.19-164.22-63.27-50.5-28.25-104.21-56-163.84-47.92-86.22,11.69-169.31,55.58-249.2,87.6-43.26,17.34-87.23,35.03-132.84,45.22-28.83,6.44-60.29,11.35-84.77-8.88-50.15-41.45-52.9-124.48-83.34-178.75-15.5-27.64-37.62-46.54-70.69-45.12-35.5,1.53-69.6,16.02-100.89,31.79C146.5,403.97,80.58,456.11,0,460.06v-19.71c79.64-4.31,142.57-54.82,211.03-89.99,30.87-15.86,64.85-30.18,100.03-31.59,32.24-1.29,54.44,19.51,71.07,45.02,34.89,53.5,46.78,132.43,98.17,173.8,25.13,20.23,54.58,15.64,84.13,9.02,44.56-9.98,87.51-27.04,129.79-43.97,78.16-31.3,158.68-73.11,242.9-85.02,59.34-8.4,114.66,19.76,165.81,46.37,50.72,26.39,107.09,61.77,166.29,61.24,37.66-.34,75.95-18.4,109.35-34.09,54.24-25.48,106.06-55.88,158.5-84.79,52.03-28.69,105.39-59.85,162.74-76.75,32.91-9.7,67.63-12.56,96.48,9.08,20.5,15.38,31.95,38.74,46.8,58.97,20.17,27.49,43.77,40.27,77.96,42.7v19.71Z"/>
    <path class="cls-1" d="M1921.06,417.87c-34.72-2.47-60.53-15.01-84.8-39.62-18.47-18.73-34.35-40.34-57.06-54.34-30.87-19.03-64.27-18.03-98.26-8.41-53.41,15.13-103.1,43.34-151.56,69.72-48.19,26.23-95.8,53.89-145.73,76.76-32.28,14.79-68.88,31.01-105.03,31.36-59.82.59-118.57-32-171.6-55.94-52.8-23.84-110.44-50.5-169.79-42.33-79.31,10.93-154.68,49.62-228.25,79.04-39.8,15.92-80.28,31.76-122.27,40.91-30.54,6.65-58.43,9.52-85.38-8.66-57.38-38.7-84.44-112.63-129.15-163.48-20.38-23.18-45.62-43.94-78.13-42.67-33.83,1.32-66.36,14.81-95.79,30.6-64.77,34.76-121.91,82.89-198.27,87.03v-19.71c72.27-3.67,122.7-49.31,182.82-83.45,27.55-15.64,58.03-28,90.07-29.28,33.99-1.35,63.39,18.2,88.37,39.24,56.34,47.44,99.2,115.94,164.89,151.56,61.37,33.28,142.35-5.83,200.9-29.2,68-27.14,137.42-62.56,210.86-71.94,59.76-7.63,119.53,16.49,174.33,37.39,56.04,21.38,116.82,50.07,178.05,49.47,34.05-.33,67.85-13.74,98.56-27.31,45.04-19.89,87.87-44.46,131.24-67.65,69.68-37.25,158.7-92.46,238.48-53.49,25.56,12.48,46.2,32.12,68.72,49.07,28.68,21.59,57.67,33.46,93.76,35.57v19.71Z"/>
    <path class="cls-1" d="M1921.06,375.67c-73.49-2.73-123.36-48.61-189.52-72.44-79.64-28.69-153.09,6.59-223.63,43.17-62.04,32.17-129.91,77.07-202.2,77.61-63.52.47-126.5-22.86-186.52-40.95-57.46-17.32-119.37-37.61-180.16-30.89-65.76,7.26-127.47,38.52-188.19,62.68-60.35,24.01-128.46,51-192.43,25.29-77.75-31.25-139.71-93.54-210.98-136.2-30.88-18.48-65.62-35.99-102.57-34.49-29.69,1.21-57.2,12.11-82.31,27.48-54.22,33.19-95.31,75.77-162.55,78.74v-19.71c62.9-2.37,95.6-41.78,144.31-74.51,61.17-41.11,127.68-24.2,190.75,4.32,84.75,38.33,162.96,94.82,252.34,122.41,64.02,19.76,124.67,2.07,184.86-21.79,54.23-21.5,108.92-48.93,167.81-54.37,62.1-5.74,125.48,10.83,185.4,25.05,63.51,15.07,128.37,33.47,194.15,33.29,64.37-.18,121.36-34.07,177.34-61.99,68.81-34.32,133.76-54.63,210.26-33.87,73.1,19.84,136.03,60,213.84,61.46v19.71Z"/>
    <path class="cls-1" d="M1921.06,333.48c-83.51-.28-158.63-34.04-239.34-49.95-70.58-13.91-131.53-6.13-196.25,24.16-49.36,23.09-95.69,45.85-151.35,45.66-68.18-.24-135.22-13.52-202.14-25.27-62.47-10.97-127.21-23.56-190.95-18.93-51.72,3.76-98.85,26.91-146.37,45.61-58.45,23-114.56,32.68-176.72,18.07-102.27-24.02-197-74.05-296.11-107.82-61.75-21.04-139.13-45.29-196.63-1.61-17.77,13.5-31.83,31.24-49.46,44.89-22.77,17.63-47.19,24.29-75.73,25.19v-19.71c26.75-.78,50.16-6.18,70.73-24.03,14.99-13.01,25.9-30.06,41.03-42.94,53.65-45.66,140.89-16.6,200.18-.06,109.52,30.55,215.95,75.4,327.78,97.27,59.78,11.69,114.2,6.71,170.57-15.34,42.84-16.77,84.48-36.52,131.14-39.39,64.95-4,130.8,6.06,194.99,14.65,69.06,9.24,137.94,19.23,207.74,19.66,49.11.31,88.86-15.01,133.23-34.26,145.37-63.07,294.93,24.7,443.68,24.44v19.71Z"/>
    <path class="cls-1" d="M1921.06,291.28c-91.28-.59-179.72-24.7-269.82-36.19-61.23-7.81-121.34-9.87-179.49,12.88-40.5,15.85-76.94,26.62-120.98,26.54-70.78-.13-141.27-8.64-211.58-15.85-65.23-6.69-132.41-15.89-198.1-11.74-43.06,2.72-80.59,19.54-120.19,34.92-54.53,21.18-107.74,23.42-165.32,13.2-119.07-21.14-234.34-61-351.78-89.26-56.54-13.61-151.37-46.44-201.33.7-13.11,12.37-21.42,28.87-34.36,41.39-18.95,18.34-42.55,22.58-68.11,23.42v-19.71c25.49-1.04,49.09-5.37,68.14-23.48,12.96-12.32,21.43-28.58,34.55-40.75,50.5-46.83,144.1-13.97,201.05-.49,117.86,27.89,233.73,66.41,353.07,87.75,57.59,10.29,110.26,8.28,164.86-12.78,39.37-15.19,76.39-31.64,119.15-34.5,65.74-4.4,133.04,4.93,198.31,11.68,70.3,7.27,140.77,15.85,211.53,15.93,43.93.05,79.98-10.46,120.25-26.58,57.75-23.11,117.96-20.59,178.85-12.88,90.53,11.47,179.61,35.34,271.29,36.1v19.71Z"/>
    <path class="cls-1" d="M1921.06,249.09c-91.17-.21-178.77-27.71-268.42-40.58-63.31-9.09-123.89-10.71-182.52,17.1-42.15,19.99-78.87,33.88-126.28,33.68-69.75-.28-138.61-10.53-207.6-19.87-64.27-8.71-130.25-18.96-195.3-14.62-44.24,2.95-83.07,20.51-123.76,36.36-55.31,21.55-108.53,24.47-166.98,13.7-114.14-21.04-224.35-60.48-336.82-88.5-60.47-15.06-145.75-43.53-201.09-.03-15.08,11.85-26.42,27.73-41.38,39.71-20.94,16.77-44.56,21.9-70.92,23.05v-19.71c27.78-1.15,52.61-6.82,76.01-22.28,17.55-11.59,32.25-26.97,49.9-38.41,60.09-38.97,136.69-16.03,200.36,1.04,105.46,28.26,208.35,68.5,315.68,89.48,59.3,11.6,112.78,6.74,168.77-15.13,42.64-16.66,83.71-35.62,130.06-38.92,63.86-4.55,128.39,7.94,190.96,19.06,66.8,11.88,133.8,25.42,201.91,25.56,51.58.1,90.8-19.82,134.99-43.95,60.78-33.18,120.44-34.75,188.05-23.35,88.37,14.9,173.96,46.3,264.37,46.9v19.71Z"/>
    <path class="cls-1" d="M1921.06,206.89c-89.41-1.67-172.09-38.03-258.67-55.81-35.83-7.36-74.43-12.92-110.75-5.76-31.03,6.12-58.69,21.53-85.27,38.06-46.53,28.95-90.55,58.38-147.37,58.54-65.69.19-130.45-18.42-193.82-33.64-59.98-14.4-122.6-30.43-184.8-25.46-49.29,3.94-93.47,24.71-138.86,42.49-56.56,22.16-110.7,30.11-170.75,17.21-98-21.05-190.8-62.21-286.64-90.83-66.23-19.78-134.58-35.8-198.98-2.58-21.22,10.95-40.29,25.58-61.43,36.66-26.63,13.96-53.75,20.05-83.71,21.11v-19.71c62.24-1.81,108.02-31.41,163.41-54.99,66.82-28.46,130.32-18.35,197.56,4.08,86.79,28.96,170.04,70.95,259.32,92.09,60.4,14.3,115.71,3.09,172.47-19.2,48.01-18.85,95.11-41.28,147.19-45.87,60.8-5.36,121.52,14.07,178.95,31.57,59.86,18.24,122.72,41.75,186.13,41.32,61.36-.42,110.69-39.54,159.14-72.42,28.69-19.47,58.7-38.54,92.76-46.89,36.58-8.96,74.85-2.68,110.87,6.04,84.87,20.54,164.69,61.43,253.26,64.27v19.71Z"/>
    <path class="cls-1" d="M1921.06,164.7c-87.8-4.06-164.28-50.03-247.27-73.62-36.37-10.34-73.96-17.18-110.98-6.38-37.37,10.9-69.97,33.98-101.05,56.65-50.4,36.76-106.06,87.13-172.15,87.76-61.11.58-121.79-28.32-177.63-49.81-54.57-21-112.9-44.06-172.47-38.31-55.18,5.33-105.5,29.58-156.41,49.62-56.68,22.31-114.01,37.45-174.44,21.4-79.75-21.19-152.22-64.19-229-93.5-67.1-25.62-127.88-29.63-196.04-5.73-61.67,21.63-116.73,50.39-183.6,51.92v-19.71c70.62-1.39,132.53-29.18,198.91-49.6,68.28-21,128.94-21.36,195.05,6.91,69.1,29.55,133.04,73.5,205.61,94.59,60.3,17.52,119.74-.77,176.2-23.03,53.13-20.95,105.92-46.62,163.45-52.47,58.99-6,115.14,19.52,167.58,43.36,52.82,24.01,111.52,56.83,171.21,56.22,69.59-.71,130.12-59.81,181.98-99.34,32.91-25.08,67.47-51.26,107.35-64.08,37.32-11.99,74.43-4.88,110.97,6.72,81.59,25.9,155.33,75.98,242.73,80.72v19.71Z"/>
    <path class="cls-1" d="M1921.06,122.5c-87.36-4.68-158.52-58.76-239.01-86.53-36.35-12.54-73.44-19.79-110.74-7.19-41.99,14.18-78.18,43.13-112.54,70.2-53.16,41.87-117.31,108.01-189.92,108.69-59.13.56-115.45-34.97-166.03-61.41-50.81-26.56-104.67-53.44-163.62-47.34-59.47,6.16-114.41,33.14-169.32,54.85-56.39,22.31-117.96,43.03-178.28,24.3-66.68-20.71-122.94-65.83-185.52-95.52-64.96-30.82-126.64-26.37-194.67-7.74C141.13,94.05,73.81,121.04,0,122.5v-19.71c137.48-3.45,277.17-105.92,411.42-39.16,59.65,29.66,111.89,75.84,176.14,95.95,60.95,19.08,123.27-2.13,180.19-24.66,55.58-22,111.51-49.79,171.76-55.84,59.48-5.97,111.73,20.32,162.18,48.6,50.19,28.14,104.41,63.72,164.16,63.29,74.16-.52,138.88-68.97,192.79-112.06,34.81-27.83,71.7-58.33,114.61-72.63,36.74-12.24,74.61-4.94,110.26,7.72,80.17,28.47,149.83,85.19,237.57,88.79v19.71Z"/>
  </g>
</svg>