<svg width="250" height="250" viewBox="0 0 250 250" fill="none" xmlns="http://www.w3.org/2000/svg">
<path d="M187.5 250C152.982 250 125 222.018 125 187.5V187.5C125 152.982 152.982 125 187.5 125V125C222.018 125 250 152.982 250 187.5L250 250L187.5 250Z" fill="#1ABCFE"/>
<path d="M0 187.5C0 152.982 27.9822 125 62.5 125V125C97.0178 125 125 152.982 125 187.5V187.5C125 222.018 97.0178 250 62.5 250H0L0 187.5Z" fill="#FF5A5A"/>
<path d="M62.5 -2.73196e-06C97.0178 -1.22314e-06 125 27.9822 125 62.5V62.5C125 97.0178 97.0178 125 62.5 125V125C27.9822 125 -4.24078e-06 97.0178 -2.73196e-06 62.5L0 -5.46392e-06L62.5 -2.73196e-06Z" fill="#FFB55D"/>
<path d="M250 62.5C250 97.0178 222.018 125 187.5 125V125C152.982 125 125 97.0178 125 62.5V62.5C125 27.9822 152.982 -8.48157e-06 187.5 -5.46392e-06L250 0L250 62.5Z" fill="#C3FF94"/>
<path d="M187.5 250C152.982 250 125 222.018 125 187.5V187.5C125 152.982 152.982 125 187.5 125V125C222.018 125 250 152.982 250 187.5L250 250L187.5 250Z" fill="#1ABCFE"/>
<path d="M0 187.5C0 152.982 27.9822 125 62.5 125V125C97.0178 125 125 152.982 125 187.5V187.5C125 222.018 97.0178 250 62.5 250H0L0 187.5Z" fill="#FF5A5A"/>
<path d="M62.5 -2.73196e-06C97.0178 -1.22314e-06 125 27.9822 125 62.5V62.5C125 97.0178 97.0178 125 62.5 125V125C27.9822 125 -4.24078e-06 97.0178 -2.73196e-06 62.5L0 -5.46392e-06L62.5 -2.73196e-06Z" fill="#FF9559"/>
<path d="M250 62.5C250 97.0178 222.018 125 187.5 125V125C152.982 125 125 97.0178 125 62.5V62.5C125 27.9822 152.982 -8.48157e-06 187.5 -5.46392e-06L250 0L250 62.5Z" fill="#7BFF78"/>
</svg>
