<svg width="277" height="277" viewBox="0 0 277 277" fill="none" xmlns="http://www.w3.org/2000/svg">
<path d="M7.62939e-06 -5.46392e-06C69.0356 -2.44628e-06 125 55.9644 125 125V125V125C55.9644 125 4.61175e-06 69.0356 7.62939e-06 -5.46392e-06V-5.46392e-06V-5.46392e-06Z" fill="#FFB55E"/>
<path d="M0 214.5C0 179.982 27.9822 152 62.5 152H125V214.5C125 249.018 97.0178 277 62.5 277V277C27.9822 277 0 249.018 0 214.5V214.5Z" fill="#C3FF94"/>
<path d="M214.5 152C249.018 152 277 179.982 277 214.5V214.5C277 249.018 249.018 277 214.5 277V277C179.982 277 152 249.018 152 214.5L152 152L214.5 152Z" fill="#94D8FF"/>
<path d="M152 125L152 35C152 15.67 167.67 -6.84959e-07 187 -1.5299e-06L242 -3.93403e-06C261.33 -4.77896e-06 277 15.67 277 35L277 90C277 109.33 261.33 125 242 125L152 125Z" fill="#FF5A5A"/>
</svg>
